<?xml version="1.0" standalone="no"?>
<!DOCTYPE svg PUBLIC "-//W3C//DTD SVG 20010904//EN" "http://www.w3.org/TR/2001/REC-SVG-20010904/DTD/svg10.dtd">
<svg version="1.0" xmlns="http://www.w3.org/2000/svg"
   width="512.000000pt" height="512.000000pt" viewBox="0 0 512.000000 512.000000"
   preserveAspectRatio="xMidYMid meet">

   <g transform="translate(0.000000,512.000000) scale(0.110000,-0.110000)"
      fill="#fac564" stroke="none">
      <path
         d="M2320 4423 c-90 -10 -286 -56 -381 -88 -1066 -369 -1573 -1556 -1101
-2577 264 -569 813 -972 1452 -1064 172 -25 481 -15 646 20 520 110 968 429
1239 881 434 722 323 1663 -266 2265 -297 303 -671 494 -1090 555 -99 14 -401
19 -499 8z m435 -413 c331 -47 644 -211 874 -456 355 -380 481 -912 335 -1421
-33 -119 -138 -330 -215 -433 -287 -390 -719 -610 -1194 -610 -154 0 -251 12
-384 46 -262 68 -510 217 -700 420 -355 379 -481 912 -335 1419 27 94 103 265
157 350 190 303 500 539 843 640 167 50 444 69 619 45z" />
      <path
         d="M2500 3752 c-22 -12 -44 -35 -57 -62 -23 -44 -23 -46 -23 -541 l0
-496 -217 -6 c-120 -4 -277 -7 -349 -7 -118 0 -135 -2 -175 -23 -152 -81 -140
-299 20 -370 42 -19 62 -19 527 -12 l484 8 3 471 c5 945 4 947 -18 985 -39 66
-126 89 -195 53z" />
   </g>
</svg>