<?xml version="1.0" encoding="utf-8"?>
<!-- Generator: Adobe Illustrator 25.3.0, SVG Export Plug-In . SVG Version: 6.00 Build 0)  -->
<svg version="1.1" id="Capa_1" xmlns="http://www.w3.org/2000/svg"
	xmlns:xlink="http://www.w3.org/1999/xlink" x="0px" y="0px"
	viewBox="0 0 506.3 471.3" style="enable-background:new 0 0 506.3 471.3;" xml:space="preserve">
<g transform="scale(0.800000, 0.800000)" fill="#fac564" stroke="none">
<path d="M497.2,408.2c-10.3,29.1-51.2,53.3-83.9,60.3c-22.3,4.8-51.5,8.6-149.7-32.2c-125.6-52-206.5-179.7-212.8-188
	C44.7,240,0,180.7,0,119.4s31.2-91.2,43.7-104C54,4.8,71.1,0,87.4,0c5.3,0,10,0.3,14.3,0.5c12.6,0.5,18.9,1.3,27.1,21.1
	c10.3,24.8,35.4,86.2,38.4,92.5c3,6.3,6.1,14.9,1.8,23.1c-4,8.6-7.5,12.3-13.8,19.6c-6.3,7.3-12.3,12.8-18.6,20.6
	c-5.8,6.8-12.3,14.1-5,26.6c7.3,12.3,32.4,53.3,69.4,86.2c47.7,42.5,86.4,56.1,100.3,61.8c10.3,4.3,22.6,3.3,30.1-4.8
	c9.6-10.3,21.4-27.4,33.4-44.2c8.6-12.1,19.3-13.6,30.7-9.3c11.5,4,72.6,34.2,85.2,40.5c12.6,6.3,20.8,9.3,23.9,14.6
	C507.6,354.1,507.6,379,497.2,408.2z"/>
</g>
</svg>