<?xml version="1.0" standalone="no"?>
<!DOCTYPE svg PUBLIC "-//W3C//DTD SVG 20010904//EN"
 "http://www.w3.org/TR/2001/REC-SVG-20010904/DTD/svg10.dtd">
<svg version="1.0" xmlns="http://www.w3.org/2000/svg"
 width="66.000000pt" height="66.000000pt" viewBox="0 0 66.000000 66.000000"
 preserveAspectRatio="xMidYMid meet">

<g transform="translate(0.000000,66.000000) scale(0.100000,-0.100000)"
fill="#fac564" stroke="none">
<path d="M340 490 l0 -141 143 3 142 3 -3 38 c-11 118 -133 237 -244 237 l-38
0 0 -140z m110 98 c67 -25 131 -105 145 -180 10 -55 -9 -47 -24 10 -6 27 -26
66 -43 87 -31 37 -116 85 -151 85 -10 0 -15 5 -12 10 6 10 37 6 85 -12z m15
-60 c43 -29 85 -94 85 -130 l0 -29 -92 3 -93 3 -3 94 -3 94 37 -6 c20 -3 51
-16 69 -29z"/>
<path d="M390 520 c0 -5 5 -10 10 -10 6 0 10 5 10 10 0 6 -4 10 -10 10 -5 0
-10 -4 -10 -10z"/>
<path d="M417 483 c-26 -26 12 -80 47 -67 21 8 30 42 16 59 -13 15 -51 20 -63
8z m43 -28 c0 -8 -4 -15 -9 -15 -13 0 -22 16 -14 24 11 11 23 6 23 -9z"/>
<path d="M390 404 c0 -8 5 -12 10 -9 6 4 8 11 5 16 -9 14 -15 11 -15 -7z"/>
<path d="M500 410 c0 -5 7 -10 16 -10 8 0 12 5 9 10 -3 6 -10 10 -16 10 -5 0
-9 -4 -9 -10z"/>
<path d="M209 556 c-105 -38 -179 -144 -179 -256 0 -103 59 -198 152 -244 69
-34 170 -36 236 -5 85 42 142 120 158 217 l7 42 -131 0 -131 0 -3 128 -3 127
-35 2 c-19 2 -51 -3 -71 -11z m81 -21 c0 -8 -8 -15 -17 -15 -35 0 -121 -49
-145 -81 -39 -53 -51 -93 -46 -158 8 -115 89 -193 207 -199 55 -3 74 1 111 20
56 30 108 97 116 149 4 23 12 39 20 39 22 0 16 -42 -13 -101 -79 -155 -278
-184 -400 -57 -43 45 -65 101 -65 168 0 113 71 207 182 241 39 11 50 10 50 -6z
m0 -130 l0 -95 -90 0 c-90 0 -90 0 -90 25 0 55 71 138 128 151 15 3 32 7 37 9
6 2 11 4 13 4 1 1 2 -42 2 -94z m0 -210 l0 -95 -27 6 c-43 10 -75 29 -106 62
-28 30 -59 100 -50 114 2 5 44 8 94 8 l89 0 0 -95z m203 87 c9 -14 -22 -84
-50 -114 -31 -33 -53 -46 -94 -58 l-29 -9 0 95 0 94 84 0 c47 0 87 -3 89 -8z"/>
<path d="M240 451 c0 -6 5 -13 10 -16 6 -3 10 1 10 9 0 9 -4 16 -10 16 -5 0
-10 -4 -10 -9z"/>
<path d="M186 414 c-19 -19 -20 -25 -3 -48 19 -26 61 -18 65 12 7 44 -32 67
-62 36z m42 -25 c-2 -6 -8 -10 -13 -10 -5 0 -11 4 -13 10 -2 6 4 11 13 11 9 0
15 -5 13 -11z"/>
<path d="M136 351 c-4 -5 -2 -12 3 -15 5 -4 12 -2 15 3 4 5 2 12 -3 15 -5 4
-12 2 -15 -3z"/>
<path d="M255 350 c-3 -5 1 -10 10 -10 9 0 13 5 10 10 -3 6 -8 10 -10 10 -2 0
-7 -4 -10 -10z"/>
<path d="M140 255 c0 -8 5 -15 10 -15 6 0 10 7 10 15 0 8 -4 15 -10 15 -5 0
-10 -7 -10 -15z"/>
<path d="M250 260 c0 -5 5 -10 10 -10 6 0 10 5 10 10 0 6 -4 10 -10 10 -5 0
-10 -4 -10 -10z"/>
<path d="M188 239 c-38 -21 -11 -74 34 -67 26 3 37 41 18 64 -14 16 -28 17
-52 3z m34 -34 c0 -5 -5 -11 -11 -13 -6 -2 -11 4 -11 13 0 9 5 15 11 13 6 -2
11 -8 11 -13z"/>
<path d="M256 161 c-4 -7 -5 -15 -2 -18 9 -9 19 4 14 18 -4 11 -6 11 -12 0z"/>
<path d="M350 245 c-15 -18 -10 -45 13 -59 34 -22 73 27 47 59 -16 19 -44 19
-60 0z m40 -30 c0 -8 -4 -15 -10 -15 -5 0 -10 7 -10 15 0 8 5 15 10 15 6 0 10
-7 10 -15z"/>
<path d="M440 250 c0 -5 5 -10 10 -10 6 0 10 5 10 10 0 6 -4 10 -10 10 -5 0
-10 -4 -10 -10z"/>
<path d="M336 151 c-4 -5 -2 -12 3 -15 5 -4 12 -2 15 3 4 5 2 12 -3 15 -5 4
-12 2 -15 -3z"/>
</g>
</svg>
