<?xml version="1.0" standalone="no"?>
<!DOCTYPE svg PUBLIC "-//W3C//DTD SVG 20010904//EN"
 "http://www.w3.org/TR/2001/REC-SVG-20010904/DTD/svg10.dtd">
<svg version="1.0" xmlns="http://www.w3.org/2000/svg"
 width="512.000000pt" height="512.000000pt" viewBox="0 0 512.000000 512.000000"
 preserveAspectRatio="xMidYMid meet">

<g transform="translate(0.000000,512.000000) scale(0.100000,-0.100000)"
fill="#fac564" stroke="none">
<path d="M2500 5061 c-74 -24 -119 -63 -145 -123 -12 -30 -15 -81 -15 -257 l0
-219 -72 -12 c-619 -97 -1137 -477 -1418 -1039 -91 -182 -146 -362 -185 -603
l-6 -37 -234 -3 -233 -3 -44 -30 c-124 -88 -124 -262 0 -350 l44 -30 233 -3
234 -3 6 -37 c75 -471 253 -824 572 -1133 290 -281 635 -452 1051 -519 l72
-12 0 -219 c0 -176 3 -227 15 -257 54 -129 221 -169 330 -80 69 57 75 83 75
335 l0 222 48 6 c96 13 277 58 374 91 272 95 496 234 707 438 311 303 506 688
566 1119 l6 47 222 0 c251 0 278 6 334 75 89 108 55 251 -76 318 l-55 27 -222
0 -223 0 -6 38 c-37 231 -92 416 -175 586 -284 583 -833 983 -1472 1071 l-47
6 -3 229 -3 228 -30 44 c-50 71 -154 112 -225 89z m247 -1106 c296 -42 527
-144 753 -333 85 -70 213 -216 271 -307 153 -241 241 -565 226 -831 -10 -170
-73 -397 -158 -567 -228 -454 -706 -765 -1220 -794 -411 -23 -872 182 -1147
509 -162 193 -254 377 -314 628 -51 214 -48 398 8 623 56 225 141 391 291 574
304 370 813 566 1290 498z"/>
<path d="M2393 3566 c-268 -51 -507 -203 -666 -423 -44 -60 -125 -228 -131
-269 -3 -16 -12 -63 -22 -104 -27 -112 -25 -325 4 -455 42 -189 172 -406 319
-532 493 -422 1216 -298 1541 265 60 103 90 190 113 324 24 139 22 279 -6 403
-9 39 -18 81 -21 95 -3 13 -19 58 -36 99 -89 212 -289 418 -503 517 -170 79
-421 112 -592 80z"/>
</g>
</svg>
