<?xml version="1.0" standalone="no"?>
<!DOCTYPE svg PUBLIC "-//W3C//DTD SVG 20010904//EN"
 "http://www.w3.org/TR/2001/REC-SVG-20010904/DTD/svg10.dtd">
<svg version="1.0" xmlns="http://www.w3.org/2000/svg"
 width="162.000000pt" height="171.000000pt" viewBox="0 0 162.000000 171.000000"
 preserveAspectRatio="xMidYMid meet">

<g transform="translate(0.000000,171.000000) scale(0.100000,-0.100000)"
fill="#fac564" stroke="none">
<path d="M653 1485 c-12 -9 -32 -33 -44 -54 -21 -37 -24 -39 -82 -43 -78 -6
-97 -27 -97 -107 l0 -56 -44 -23 c-27 -15 -49 -35 -56 -53 -11 -25 -9 -36 15
-84 l28 -55 -27 -51 c-35 -63 -26 -90 40 -134 l46 -30 3 -66 4 -67 -85 -146
c-46 -80 -84 -150 -84 -155 0 -22 22 -20 95 9 42 17 80 28 84 25 5 -2 11 -32
15 -66 9 -74 22 -112 38 -107 7 3 51 71 99 153 84 146 87 150 146 181 l60 32
51 -30 c46 -26 58 -41 137 -178 48 -83 91 -153 97 -156 19 -12 30 15 41 95 6
45 14 81 17 81 4 0 40 -13 80 -30 40 -17 77 -30 82 -30 26 0 11 40 -65 176
l-83 149 4 71 c4 71 4 71 43 93 77 44 87 75 44 150 l-25 44 25 43 c42 72 31
106 -50 150 -34 18 -35 21 -35 75 0 76 -24 99 -103 99 -56 0 -57 1 -77 39 -20
41 -54 71 -79 71 -8 0 -37 -12 -66 -26 l-52 -27 -45 27 c-52 30 -65 32 -95 11z
m94 -62 l46 -27 51 27 c28 15 59 27 68 27 10 0 28 -21 44 -50 l27 -50 62 0
c34 0 66 -5 73 -12 7 -7 12 -38 12 -70 l0 -57 55 -36 c30 -19 55 -38 55 -42 0
-5 -14 -30 -30 -58 l-29 -50 29 -52 c17 -29 30 -57 30 -63 0 -5 -25 -25 -55
-44 l-54 -35 -3 -68 -3 -68 -67 -3 -67 -3 -31 -55 c-36 -61 -42 -62 -113 -17
l-38 24 -53 -31 c-29 -16 -58 -30 -64 -30 -6 0 -25 25 -42 55 l-31 54 -67 3
-67 3 -3 65 -3 65 -49 28 c-27 15 -52 33 -56 39 -4 6 6 35 22 65 l29 54 -27
49 c-16 28 -28 56 -28 64 0 8 25 29 55 46 l54 31 3 67 3 67 63 3 63 3 35 54
c19 30 39 55 45 55 6 0 31 -12 56 -27z m-197 -783 c35 0 40 -4 64 -46 l26 -47
-62 -115 c-66 -120 -74 -124 -77 -36 -1 16 -7 38 -14 48 -12 17 -15 16 -65 -3
-73 -29 -77 -27 -49 22 103 180 109 188 124 183 8 -3 32 -6 53 -6z m631 -102
c35 -61 66 -115 67 -120 2 -5 -19 1 -47 12 -29 11 -60 20 -71 20 -20 0 -22 -5
-37 -90 l-9 -45 -65 114 -66 113 35 54 c34 53 36 54 82 54 l47 0 64 -112z"/>
<path d="M691 1299 c-121 -48 -197 -170 -188 -301 16 -238 285 -363 479 -222
149 107 164 325 32 456 -83 83 -213 110 -323 67z m215 -44 c17 -7 50 -29 72
-49 109 -98 108 -272 0 -377 -135 -131 -371 -65 -424 118 -40 139 46 288 189
324 40 10 120 2 163 -16z"/>
</g>
</svg>
