<?xml version="1.0" standalone="no"?>
<!DOCTYPE svg PUBLIC "-//W3C//DTD SVG 20010904//EN"
 "http://www.w3.org/TR/2001/REC-SVG-20010904/DTD/svg10.dtd">
<svg version="1.0" xmlns="http://www.w3.org/2000/svg"
 width="860.000000pt" height="868.000000pt" viewBox="0 0 860.000000 868.000000"
 preserveAspectRatio="xMidYMid meet">

<g transform="translate(0.000000,868.000000) scale(0.100000,-0.100000)"
fill="#fac564" stroke="none">
<path d="M4076 8270 c-202 -26 -396 -85 -604 -185 -238 -115 -375 -215 -580
-423 l-132 -135 -123 21 c-215 39 -285 45 -462 39 -207 -6 -350 -31 -533 -92
-536 -179 -986 -602 -1197 -1125 -122 -301 -169 -645 -129 -931 50 -363 200
-711 424 -984 70 -85 233 -244 315 -306 180 -138 402 -254 647 -337 227 -78
291 -118 358 -222 68 -106 75 -150 145 -890 120 -1281 124 -1320 151 -1372 87
-171 254 -311 534 -447 286 -138 638 -234 1045 -283 130 -16 558 -16 705 0
552 60 1055 225 1351 443 92 68 203 187 238 257 48 96 45 71 162 1327 49 528
81 811 99 862 37 107 120 203 215 251 22 11 114 46 205 77 287 99 484 207 675
367 545 457 802 1129 686 1798 -105 608 -520 1149 -1095 1429 -234 114 -466
169 -741 178 -189 6 -272 -1 -472 -39 l-113 -21 -147 144 c-206 201 -350 308
-549 407 -181 91 -388 156 -569 182 -106 15 -422 21 -509 10z m399 -280 c182
-10 289 -34 450 -99 263 -108 477 -271 680 -521 150 -182 120 -169 272 -126
442 125 852 90 1243 -106 481 -241 831 -734 890 -1253 13 -116 13 -335 0 -450
-40 -342 -206 -681 -460 -935 -196 -196 -414 -324 -711 -420 -193 -62 -240
-84 -336 -156 -146 -112 -265 -290 -292 -440 -17 -92 -57 -446 -91 -799 -39
-404 -68 -657 -81 -694 -12 -33 -97 -78 -319 -169 -335 -136 -617 -213 -950
-259 -195 -26 -746 -26 -940 0 -280 39 -529 100 -775 193 -254 95 -492 203
-500 227 -3 7 -27 242 -55 522 -64 650 -97 935 -116 1009 -32 131 -143 296
-266 395 -85 69 -170 112 -308 156 -347 110 -534 218 -756 440 -233 233 -362
468 -440 801 -26 111 -28 134 -28 334 1 257 16 369 74 544 145 434 449 779
856 973 224 106 443 154 709 156 199 1 331 -17 502 -69 62 -19 119 -34 127
-34 8 0 59 55 112 123 131 163 163 197 269 285 198 166 421 282 654 342 161
41 285 47 586 30z m-1759 -6396 c317 -134 652 -232 991 -290 268 -46 762 -54
1058 -18 338 41 751 153 1092 295 78 32 147 59 153 59 16 0 3 -97 -26 -192
-21 -67 -31 -82 -79 -126 -199 -182 -689 -365 -1165 -436 -145 -22 -510 -31
-700 -17 -377 26 -824 150 -1132 314 -179 94 -274 179 -298 266 -15 56 -25
191 -13 191 6 0 59 -21 119 -46z"/>
<path d="M4071 7659 c-84 -14 -254 -74 -365 -128 -172 -83 -226 -135 -226
-218 0 -74 77 -134 153 -119 16 3 64 26 106 50 179 103 381 160 566 159 189 0
371 -50 529 -146 114 -70 178 -83 226 -50 35 24 48 43 60 85 22 78 -33 140
-197 225 -114 59 -210 98 -308 126 -57 16 -109 20 -280 22 -115 2 -234 -1
-264 -6z"/>
<path d="M2195 6884 c-166 -28 -355 -96 -501 -182 -254 -148 -443 -382 -542
-670 -27 -78 -28 -116 -1 -159 25 -41 66 -63 114 -63 76 0 100 27 165 191 43
106 120 220 215 315 196 198 403 282 774 314 140 12 166 21 198 69 42 62 18
155 -47 188 -33 17 -270 15 -375 -3z"/>
<path d="M2870 3578 c-57 -29 -84 -75 -81 -137 2 -47 111 -922 132 -1064 14
-94 38 -129 103 -147 38 -10 49 -10 88 8 49 21 78 66 78 120 0 99 -128 1107
-147 1153 -30 76 -101 103 -173 67z"/>
<path d="M5634 3590 c-28 -11 -70 -63 -83 -102 -10 -32 -80 -579 -121 -951
-24 -210 -21 -238 30 -281 43 -36 81 -41 133 -18 82 36 77 17 151 617 36 297
69 560 72 585 4 39 1 51 -24 86 -44 60 -106 85 -158 64z"/>
<path d="M3840 3309 c-14 -6 -40 -24 -57 -42 l-33 -31 0 -602 0 -603 33 -30
c64 -61 134 -64 200 -10 l37 30 0 608 0 607 -32 31 c-51 49 -97 62 -148 42z"/>
<path d="M4665 3306 c-16 -8 -42 -27 -58 -43 l-27 -29 2 -610 3 -609 49 -32
c72 -49 116 -44 184 20 l32 31 0 601 0 601 -32 31 c-54 52 -99 63 -153 39z"/>
</g>
</svg>
