<?xml version="1.0" standalone="no"?>
<!DOCTYPE svg PUBLIC "-//W3C//DTD SVG 20010904//EN"
 "http://www.w3.org/TR/2001/REC-SVG-20010904/DTD/svg10.dtd">
<svg version="1.0" xmlns="http://www.w3.org/2000/svg"
 width="1210.000000pt" height="1238.000000pt" viewBox="0 0 1210.000000 1238.000000"
 preserveAspectRatio="xMidYMid meet">

<g transform="translate(0.000000,1238.000000) scale(0.100000,-0.100000)"
fill="#fac564" stroke="none">
<path d="M5575 11337 c-38 -4 -129 -7 -202 -7 -72 1 -134 -3 -137 -8 -3 -5
-30 -22 -61 -36 -46 -23 -61 -37 -90 -87 -19 -33 -35 -70 -35 -83 0 -23 -38
-118 -123 -306 -13 -30 -28 -66 -32 -80 -4 -14 -20 -50 -36 -80 -46 -89 -129
-328 -129 -373 0 -25 -65 -169 -106 -237 -11 -19 -27 -53 -34 -75 -7 -22 -30
-73 -52 -112 -34 -64 -113 -273 -103 -273 12 0 -42 -102 -76 -147 -41 -52
-126 -240 -156 -342 -8 -31 -20 -63 -24 -71 -25 -45 -79 -171 -89 -210 -7 -25
-20 -56 -30 -70 -36 -51 -110 -202 -110 -223 0 -13 -4 -27 -9 -32 -5 -6 -21
-55 -36 -110 -14 -55 -37 -116 -49 -135 -19 -29 -62 -104 -97 -170 -23 -42
-67 -153 -141 -355 -16 -43 -42 -106 -57 -140 -60 -127 -80 -173 -104 -250
-34 -107 -120 -304 -168 -387 -22 -36 -39 -69 -39 -72 0 -3 -13 -34 -29 -68
-15 -35 -32 -74 -36 -88 -4 -14 -45 -101 -90 -195 -46 -93 -100 -213 -121
-265 -20 -52 -47 -111 -59 -130 -32 -52 -61 -119 -74 -173 -6 -27 -31 -90 -55
-140 -24 -51 -54 -126 -66 -167 -12 -41 -28 -88 -35 -105 -7 -16 -16 -41 -20
-55 -7 -23 -61 -130 -114 -223 -11 -20 -37 -83 -56 -139 -35 -100 -61 -149
-122 -234 -45 -60 -123 -216 -123 -244 0 -6 -18 -54 -40 -105 -22 -52 -43
-116 -46 -142 -6 -55 -29 -142 -51 -193 -32 -75 -55 -120 -72 -142 -10 -13
-32 -50 -50 -83 -18 -33 -51 -91 -73 -128 -63 -109 -89 -175 -98 -256 -8 -69
-19 -97 -119 -295 -118 -234 -187 -402 -201 -493 -9 -52 -34 -110 -109 -253
-16 -30 -37 -80 -47 -110 -31 -101 -107 -275 -135 -310 -31 -38 -59 -109 -59
-147 0 -13 -15 -53 -34 -88 -23 -43 -36 -84 -40 -128 -7 -58 -4 -71 22 -128
35 -79 80 -125 152 -156 30 -13 63 -28 72 -34 10 -5 59 -9 110 -10 93 -1 93
-1 58 -16 -19 -9 -70 -18 -113 -21 -82 -5 -142 10 -199 49 -46 33 -40 20 14
-27 95 -86 218 -121 324 -95 26 7 192 74 368 151 640 276 1514 653 1656 715
80 35 309 134 510 220 201 86 381 165 402 175 l36 17 7 -35 c4 -20 16 -55 27
-79 17 -36 18 -47 8 -75 -7 -20 -15 -140 -20 -298 -5 -146 -14 -335 -20 -421
-7 -106 -8 -176 -1 -218 18 -111 97 -224 192 -275 30 -16 71 -42 91 -58 59
-46 163 -88 250 -101 155 -22 303 29 421 144 78 78 130 177 147 279 5 36 10
152 10 259 l0 193 28 -7 c15 -4 71 -9 125 -12 80 -4 109 -1 166 16 126 38 242
135 301 251 55 108 54 98 60 673 l5 538 265 115 c146 62 271 114 279 114 8 0
69 27 135 59 67 33 227 105 357 161 l237 102 7 45 c4 25 2 50 -3 55 -5 5 -31
-1 -67 -16 -32 -15 -60 -26 -64 -26 -8 1 141 79 152 80 17 1 6 -266 -17 -396
-12 -72 -26 -135 -29 -141 -4 -5 4 -15 17 -21 22 -10 24 -18 30 -119 15 -242
23 -297 57 -378 66 -159 158 -265 274 -316 42 -18 62 -20 174 -17 115 3 132 6
196 35 51 23 88 49 137 99 81 82 107 148 133 334 31 222 33 227 34 80 1 -151
-12 -221 -57 -303 -151 -279 -519 -355 -772 -160 -41 32 -40 30 10 -17 119
-113 219 -159 360 -167 200 -12 385 91 478 265 51 95 62 167 62 406 l0 208 23
-6 c12 -4 51 -12 85 -18 191 -34 415 80 509 258 59 111 63 145 63 599 l0 410
113 49 c204 88 1129 487 1297 559 91 40 179 84 197 100 46 41 61 93 78 277 73
815 -38 1594 -335 2355 -128 327 -355 753 -544 1022 -114 160 -165 230 -178
244 -7 8 -29 34 -48 59 -19 25 -42 54 -52 65 -9 11 -32 40 -52 63 -20 24 -36
41 -36 37 0 -4 33 -48 73 -99 101 -125 224 -294 289 -396 90 -140 272 -457
250 -435 -14 14 -197 297 -216 333 -8 16 -45 69 -81 116 -36 47 -80 112 -97
143 -61 114 -140 213 -273 344 -75 74 -157 161 -183 194 -100 128 -278 303
-363 357 -14 9 -71 59 -125 110 -95 89 -176 158 -187 158 -3 0 -56 35 -118 77
-128 86 -207 131 -424 243 -82 43 -170 89 -195 104 -25 14 -52 26 -61 26 -9 0
-34 13 -57 29 -79 58 -148 90 -247 114 -55 14 -139 44 -188 66 -130 61 -225
97 -292 111 -105 21 -148 32 -220 60 -76 29 -185 52 -335 70 -52 6 -117 18
-143 26 -27 7 -99 16 -160 19 -62 3 -152 14 -202 23 -98 18 -526 24 -660 9z
m485 -311 c145 -3 221 -9 260 -20 47 -14 49 -15 15 -11 -105 13 -485 26 -605
21 -74 -3 -130 -3 -124 0 26 11 102 19 173 17 42 -2 168 -5 281 -7z m-535 -23
c-174 -14 -165 -11 -186 -56 -16 -35 -18 -37 -13 -12 3 17 12 40 20 53 14 21
21 22 117 20 56 -1 84 -3 62 -5z m172 -45 c-3 -8 -6 -5 -6 6 -1 11 2 17 5 13
3 -3 4 -12 1 -19z m-157 8 c0 -3 -4 -8 -10 -11 -5 -3 -10 -1 -10 4 0 6 5 11
10 11 6 0 10 -2 10 -4z m1063 -3 c-7 -2 -21 -2 -30 0 -10 3 -4 5 12 5 17 0 24
-2 18 -5z m44 -9 c-3 -3 -12 -4 -19 -1 -8 3 -5 6 6 6 11 1 17 -2 13 -5z m-402
-25 c748 -49 1439 -259 2094 -636 140 -81 453 -291 481 -323 13 -15 72 -52 76
-47 10 10 -315 249 -478 352 -43 27 -78 50 -78 52 0 5 40 -16 70 -37 14 -10
48 -30 75 -45 73 -41 99 -59 242 -170 153 -119 204 -165 198 -175 -3 -4 10
-19 28 -33 17 -14 50 -41 72 -60 22 -20 44 -33 49 -30 5 3 6 1 3 -4 -8 -12 16
-35 31 -31 13 4 72 -40 72 -54 0 -7 -17 4 -37 23 l-38 34 39 -42 c21 -23 44
-41 50 -40 6 1 10 -4 9 -10 -2 -7 3 -12 10 -10 6 1 11 -4 10 -10 -2 -7 3 -12
10 -10 6 1 11 -4 10 -10 -2 -7 3 -12 10 -10 6 1 11 -4 10 -10 -2 -7 3 -12 10
-10 6 1 11 -4 10 -10 -2 -7 2 -12 8 -10 6 1 16 -7 22 -17 15 -23 67 -83 173
-197 81 -86 197 -235 265 -339 19 -31 49 -71 65 -90 17 -19 45 -60 63 -90 19
-30 58 -85 87 -121 30 -36 54 -70 54 -74 0 -5 11 -23 25 -41 14 -18 48 -88 77
-156 28 -68 70 -152 93 -188 36 -56 107 -230 145 -355 7 -22 39 -97 71 -168
33 -70 59 -140 59 -155 0 -15 9 -56 21 -92 50 -162 70 -258 84 -410 3 -36 15
-103 27 -150 27 -112 30 -140 12 -140 -10 0 -14 -15 -14 -57 0 -79 10 -133 24
-133 9 0 10 -22 3 -87 -8 -82 -4 -407 9 -656 4 -73 2 -113 -6 -122 -6 -7 -48
-28 -93 -46 -45 -18 -84 -36 -87 -39 -22 -30 -353 -151 -368 -135 -3 2 6 13
19 23 29 24 28 55 -7 302 -80 567 -243 1088 -499 1595 -196 390 -417 724 -685
1039 -60 70 -78 86 -31 26 153 -193 188 -241 269 -357 103 -148 126 -183 120
-183 -3 0 -20 21 -38 48 -19 26 -37 49 -40 52 -3 3 -52 68 -109 145 -210 286
-254 339 -378 457 -33 31 -80 83 -104 115 -86 113 -458 446 -569 508 -45 25
-246 169 -285 204 -44 40 -125 98 -250 181 -198 131 -278 177 -420 241 -77 34
-160 79 -185 100 -89 73 -233 135 -410 178 -47 11 -137 39 -200 62 -146 52
-214 69 -315 74 -124 7 -244 30 -315 60 -142 60 -192 69 -375 71 -93 1 -176 2
-183 3 -16 1 -8 32 17 71 9 13 36 71 59 130 24 58 55 133 70 168 14 34 31 62
38 62 13 0 -11 -62 -110 -292 -25 -59 -46 -112 -46 -117 0 -6 21 -11 50 -11
49 0 51 1 70 43 36 78 157 362 164 384 8 26 31 30 211 42 181 12 431 12 610 0z
m435 -8 c0 -6 -4 -13 -10 -16 -5 -3 -10 1 -10 9 0 9 5 16 10 16 6 0 10 -4 10
-9z m714 -150 c4 -5 -3 -7 -14 -4 -23 6 -26 13 -6 13 8 0 17 -4 20 -9z m-2364
-612 c0 -20 3 -20 179 -13 193 7 227 3 329 -42 29 -13 58 -24 64 -24 6 0 9 -2
6 -5 -3 -3 -74 3 -159 14 -85 11 -221 23 -302 27 -123 6 -147 9 -143 21 4 8 6
21 6 29 0 8 5 14 10 14 6 0 10 -9 10 -21z m345 -129 c823 -76 1604 -379 2328
-903 81 -58 241 -183 267 -208 42 -40 142 -120 125 -100 -11 13 -65 62 -120
109 -141 121 -150 131 -90 97 54 -30 111 -76 244 -195 167 -149 214 -196 268
-268 30 -40 96 -110 145 -155 49 -45 121 -125 159 -177 38 -52 95 -129 126
-170 141 -185 233 -310 233 -315 0 -3 23 -40 51 -82 62 -91 102 -172 158 -318
23 -60 52 -130 63 -155 11 -25 28 -76 38 -115 20 -77 59 -171 88 -213 25 -35
122 -342 158 -497 15 -66 36 -145 46 -175 32 -95 48 -177 78 -400 7 -47 18
-119 27 -160 16 -82 20 -237 7 -250 -5 -4 -47 -20 -94 -35 -47 -16 -114 -42
-150 -58 -36 -17 -123 -54 -195 -82 -124 -51 -130 -52 -143 -34 -16 24 -64 49
-92 49 -37 0 -81 -30 -96 -65 -8 -21 -14 -69 -14 -124 0 -52 -4 -91 -10 -93
-7 -2 -7 -25 0 -73 5 -39 10 -134 10 -212 l0 -143 -31 0 c-28 0 -30 -2 -27
-32 2 -24 8 -34 23 -36 19 -3 20 -9 17 -240 -1 -133 -7 -246 -13 -257 -10 -21
-73 -66 -99 -73 -27 -6 -123 -12 -190 -12 -74 0 -91 13 -109 87 -15 58 -14 63
13 63 19 0 25 -7 30 -34 6 -29 62 -106 69 -95 1 2 0 67 -3 144 -5 138 -6 142
-38 191 -23 37 -56 67 -118 108 -77 51 -88 56 -122 50 -25 -5 -54 -24 -93 -60
-46 -44 -58 -63 -67 -105 -16 -67 1 -250 29 -332 12 -32 22 -93 24 -135 3 -42
8 -90 13 -107 12 -41 1 -178 -39 -455 -12 -86 -37 -175 -47 -165 -3 3 -14 -3
-24 -12 -24 -21 -40 -25 -101 -25 -72 0 -94 9 -112 44 -9 18 -10 27 -3 20 14
-14 32 -16 23 -2 -3 5 -6 257 -5 560 0 487 -1 549 -15 544 -8 -4 -15 -2 -15 4
0 5 7 13 16 16 14 5 15 37 11 279 -4 257 -6 276 -29 343 -24 69 -83 169 -115
195 -12 11 -11 5 4 -26 43 -84 63 -172 62 -274 -1 -100 -16 -96 -18 5 -2 91
-131 371 -204 444 -56 55 -151 92 -254 98 -78 4 -83 3 -135 -29 -46 -28 -58
-43 -76 -87 -34 -82 -30 -108 31 -190 28 -39 59 -72 67 -72 8 0 38 -12 65 -25
28 -14 59 -25 71 -25 11 0 31 -11 44 -25 20 -21 24 -39 31 -127 4 -57 10 -136
14 -175 l8 -73 -42 0 c-43 0 -76 -13 -146 -59 -22 -14 -44 -27 -50 -28 -5 0
-84 -26 -175 -56 -159 -53 -227 -82 -335 -142 -27 -15 -63 -35 -80 -43 -16 -9
-68 -40 -115 -70 -74 -48 -139 -83 -350 -187 -25 -12 -79 -37 -120 -54 -172
-73 -172 -73 -211 -133 -24 -39 -41 -79 -49 -124 -15 -80 -17 -236 -4 -284 11
-39 4 -197 -16 -355 -10 -81 -10 -119 1 -200 20 -158 14 -184 -62 -276 -42
-50 -96 -73 -160 -67 l-34 3 -5 140 c-5 116 -11 156 -34 230 -15 50 -32 94
-37 99 -5 6 -47 24 -93 41 l-84 32 -68 -36 c-61 -32 -72 -43 -97 -92 -27 -53
-28 -61 -28 -195 1 -92 6 -157 16 -190 25 -85 30 -181 24 -439 -6 -245 -6
-252 -35 -329 l-30 -79 -79 -28 -80 -28 -30 30 -30 29 -5 853 c-5 836 -5 853
-26 903 -24 60 -84 152 -116 180 -22 19 -22 19 1 -19 13 -21 21 -40 19 -43 -3
-2 -22 25 -43 60 -46 80 -71 103 -160 156 -128 74 -154 84 -240 87 l-80 3 -61
-49 c-53 -43 -63 -56 -77 -107 l-16 -57 62 -84 c41 -56 70 -86 87 -89 14 -3
37 -12 51 -19 20 -11 128 -35 160 -35 3 0 16 -31 28 -69 18 -57 20 -73 10 -95
-7 -14 -15 -26 -18 -27 -49 -5 -68 -11 -99 -29 -20 -12 -46 -24 -57 -26 -44
-8 -151 -47 -204 -73 -51 -26 -91 -40 -251 -88 -59 -18 -126 -48 -150 -68 -8
-6 -42 -22 -75 -35 -33 -13 -71 -31 -85 -40 -57 -39 -152 -80 -239 -103 -72
-19 -109 -36 -174 -80 -62 -42 -99 -60 -152 -72 -72 -16 -221 -75 -265 -105
-14 -9 -54 -27 -90 -40 -78 -28 -220 -96 -270 -130 -14 -10 -52 -24 -85 -32
-33 -9 -139 -50 -235 -93 -532 -235 -550 -242 -550 -228 0 3 89 213 199 466
471 1093 473 1099 490 1093 9 -3 61 -21 117 -40 161 -56 255 -71 444 -70 234
0 385 33 585 128 282 134 489 338 630 621 111 224 151 408 141 660 -7 206 -41
347 -125 529 -46 99 -148 256 -212 326 l-41 45 40 -55 c69 -95 207 -360 188
-360 -10 0 -63 92 -79 139 -16 47 -78 157 -96 171 -4 3 -28 33 -53 66 -65 85
-176 185 -267 241 -42 26 -101 67 -131 92 -31 26 -67 54 -80 63 l-25 18 26 -9
c25 -9 26 -7 112 192 47 111 128 299 180 418 l94 217 -30 30 c-25 25 -29 35
-21 52 9 20 20 11 144 -112 168 -167 294 -254 437 -302 54 -18 137 -50 186
-70 48 -20 93 -36 101 -36 8 0 33 -9 57 -20 58 -26 26 -26 -83 -1 -250 59
-512 194 -693 359 -23 20 -14 10 20 -23 366 -364 896 -522 1404 -419 424 86
819 377 1030 758 203 368 246 824 115 1224 -60 180 -187 404 -300 527 l-46 50
44 -60 c132 -180 226 -391 273 -614 15 -71 20 -132 8 -101 -3 8 -21 49 -40 90
-19 41 -54 134 -78 206 -88 264 -324 592 -500 694 -33 18 -108 64 -166 102
-59 37 -126 75 -150 84 -24 9 -71 26 -104 39 -72 28 -170 58 -245 76 -58 15
-295 18 -343 6 -26 -7 -27 -6 -17 13 8 15 21 20 55 20 54 0 54 0 128 175 30
72 90 209 132 305 42 96 81 185 86 198 8 21 14 22 111 22 57 0 153 -5 213 -10z
m675 -24 c30 -7 100 -30 155 -51 55 -20 154 -50 220 -67 66 -16 138 -37 160
-47 22 -10 50 -22 63 -26 13 -4 48 -26 77 -50 29 -24 79 -58 111 -75 32 -17
60 -33 63 -36 9 -9 -44 13 -96 39 -205 105 -574 236 -858 307 l-70 18 60 1
c33 0 85 -5 115 -13z m-1136 -211 c-4 -8 -8 -15 -10 -15 -2 0 -4 7 -4 15 0 8
4 15 10 15 5 0 7 -7 4 -15z m-128 -132 c-8 -15 -15 -25 -16 -21 0 12 23 58 27
54 3 -2 -2 -17 -11 -33z m2201 -43 c103 -46 134 -63 178 -91 22 -15 106 -69
187 -122 80 -53 149 -101 153 -108 4 -6 -19 6 -51 27 -196 126 -463 284 -483
284 -9 0 -68 40 -59 40 4 0 38 -14 75 -30z m-2267 -190 c0 -11 -4 -20 -9 -20
-5 0 -7 9 -4 20 3 11 7 20 9 20 2 0 4 -9 4 -20z m2851 -177 c10 -12 5 -11 -18
6 -18 12 -33 24 -33 27 0 9 37 -15 51 -33z m250 -190 c13 -16 12 -17 -3 -4
-10 7 -18 15 -18 17 0 8 8 3 21 -13z m-3269 -45 c3 -21 8 -23 58 -21 52 2 51
1 -23 -12 -43 -7 -85 -16 -93 -19 -16 -6 -18 3 -5 38 9 21 21 29 53 35 4 0 8
-9 10 -21z m403 -12 c33 -8 71 -19 85 -25 23 -10 23 -10 -10 -6 -19 3 -62 9
-94 15 -33 5 -103 10 -155 11 -64 1 -88 4 -71 9 40 13 180 10 245 -4z m142
-42 c-3 -3 -12 -4 -19 -1 -8 3 -5 6 6 6 11 1 17 -2 13 -5z m-4 -65 c199 -40
406 -144 545 -275 96 -91 205 -270 252 -414 20 -63 60 -167 88 -231 57 -128
59 -143 42 -292 -8 -65 -18 -104 -40 -145 -16 -32 -41 -82 -54 -112 -25 -54
-50 -101 -92 -170 -12 -19 -50 -89 -84 -155 -70 -136 -104 -176 -210 -248 -41
-27 -91 -62 -110 -77 -37 -28 -210 -106 -309 -140 -33 -11 -92 -25 -132 -30
-39 -6 -76 -13 -81 -16 -6 -4 -71 -6 -145 -6 -141 1 -181 9 -288 57 -27 12
-99 39 -160 60 -60 21 -117 44 -125 50 -8 7 -29 20 -46 28 -83 42 -233 201
-306 325 l-25 44 179 416 c99 229 266 615 370 857 104 242 195 446 202 453 41
43 361 56 529 21z m182 1 c3 -6 -1 -7 -9 -4 -18 7 -21 14 -7 14 6 0 13 -4 16
-10z m336 -227 c8 -10 -5 -3 -28 16 -24 18 -43 35 -43 38 0 7 55 -34 71 -54z
m-1349 -222 c-31 -72 -58 -129 -59 -127 -4 4 37 122 57 166 16 35 50 90 55 90
2 0 -22 -58 -53 -129z m6284 -148 c-3 -4 -13 10 -21 30 -21 51 -18 59 6 14 11
-22 18 -41 15 -44z m135 -331 c10 -29 14 -50 9 -47 -10 6 -41 100 -39 119 1
12 4 4 30 -72z m-6667 -96 c-21 -47 -39 -84 -41 -82 -2 2 8 32 23 67 14 35 30
75 35 88 5 13 12 22 14 19 3 -3 -11 -44 -31 -92z m5325 -2 c12 -19 16 -32 11
-29 -11 7 -43 65 -36 65 2 0 13 -16 25 -36z m303 -579 c38 -87 43 -104 24 -80
-14 17 -34 49 -46 72 -25 54 -110 263 -110 272 1 11 81 -149 132 -264z m-3300
153 c-7 -7 -12 -8 -12 -2 0 14 12 26 19 19 2 -3 -1 -11 -7 -17z m-106 -120
c-71 -232 -240 -492 -431 -661 -222 -196 -480 -322 -765 -373 -110 -20 -316
-28 -405 -16 -67 9 -63 10 75 11 80 1 174 6 210 11 36 5 99 13 140 19 106 15
368 110 475 173 177 104 360 257 412 347 15 26 56 102 93 171 36 69 85 157
108 196 22 40 55 104 73 143 18 39 34 69 36 67 3 -2 -7 -42 -21 -88z m72 47
c-6 -14 -13 -23 -16 -21 -7 7 9 46 18 46 5 0 4 -11 -2 -25z m4595 -230 c5 -36
4 -44 -3 -28 -5 13 -12 46 -15 75 -6 66 9 26 18 -47z m-7096 -22 c22 -34 40
-63 38 -63 -2 0 -27 20 -56 45 -29 25 -56 45 -61 45 -11 0 -10 13 3 47 10 26
12 27 23 9 6 -11 30 -48 53 -83z m7120 -145 c-3 -8 -6 -5 -6 6 -1 11 2 17 5
13 3 -3 4 -12 1 -19z m-4904 -198 c-3 -12 -8 -19 -11 -16 -5 6 5 36 12 36 2 0
2 -9 -1 -20z m-2500 -45 c-3 -9 -8 -14 -10 -11 -3 3 -2 9 2 15 9 16 15 13 8
-4z m6394 -227 c-3 -8 -6 -5 -6 6 -1 11 2 17 5 13 3 -3 4 -12 1 -19z m1057
-528 c-6 -97 -10 -130 -14 -100 -3 25 -2 97 2 160 3 63 8 198 9 300 l4 185 3
-200 c2 -110 0 -265 -4 -345z m-1029 433 c9 -43 19 -87 22 -98 3 -11 2 -17 -2
-13 -4 3 -15 44 -26 90 -20 90 -21 98 -15 98 3 0 12 -35 21 -77z m-6627 -146
c-23 -53 -43 -95 -46 -93 -2 3 15 48 38 101 24 53 44 94 46 92 2 -2 -15 -47
-38 -100z m-57 -134 c-12 -20 -14 -14 -5 12 4 9 9 14 11 11 3 -2 0 -13 -6 -23z
m-30 -70 c-11 -21 -20 -35 -21 -31 0 12 33 78 38 74 2 -2 -6 -21 -17 -43z
m-30 -65 c-5 -13 -9 -27 -10 -33 -3 -25 -13 -45 -23 -45 -13 0 -2 44 19 76 19
30 25 31 14 2z m-165 -385 c-8 -15 -15 -25 -16 -21 0 12 23 58 27 54 3 -2 -2
-17 -11 -33z m184 -79 c106 -54 143 -88 222 -199 43 -60 90 -123 105 -140 67
-74 101 -127 101 -158 0 -18 5 -52 11 -77 5 -25 13 -83 16 -130 4 -47 15 -111
25 -143 13 -41 16 -67 10 -88 -5 -17 -11 -56 -14 -88 -6 -65 -18 -102 -70
-214 -20 -43 -36 -83 -36 -90 0 -33 -54 -120 -114 -182 -167 -175 -199 -204
-266 -239 -37 -20 -75 -36 -83 -36 -8 0 -52 -11 -98 -24 -49 -13 -142 -28
-224 -35 -77 -6 -169 -19 -205 -27 l-65 -16 -98 47 c-61 28 -97 51 -94 58 3 7
64 149 137 317 146 336 388 897 483 1115 33 77 60 148 59 158 0 9 3 15 7 12 5
-2 17 17 26 43 10 26 31 75 47 110 32 71 32 71 118 26z m66 1 c29 -20 56 -41
60 -47 9 -13 -1 -8 -75 44 -68 48 -56 50 15 3z m7629 -2 c-25 -40 -51 -60
-124 -93 -88 -41 -88 -38 1 16 43 25 90 60 105 78 33 39 43 38 18 -1z m-274
-159 c-29 -13 -56 -24 -60 -23 -9 1 93 49 104 48 6 0 -14 -11 -44 -25z m-91
-94 c0 -11 -4 -20 -10 -20 -5 0 -10 9 -10 20 0 11 5 20 10 20 6 0 10 -9 10
-20z m-400 -117 c-19 -8 -116 -50 -215 -93 -511 -223 -641 -277 -649 -272 -5
2 6 12 25 22 71 35 175 94 205 116 28 20 99 45 209 73 22 6 66 26 97 45 48 28
117 54 318 120 35 11 42 3 10 -11z m-7562 -585 c-60 -139 -116 -266 -124 -283
l-14 -30 4 46 c1 25 15 72 29 105 14 32 42 100 61 150 20 50 55 120 78 156 24
36 49 74 56 86 32 56 12 4 -90 -230z m1456 32 l-8 -75 -7 65 c-5 43 -4 80 4
109 l12 45 3 -35 c2 -19 0 -68 -4 -109z m5233 -297 c-3 -10 -5 -4 -5 12 0 17
2 24 5 18 2 -7 2 -21 0 -30z m0 -270 c-2 -27 -3 -5 -3 47 0 52 1 74 3 48 2
-27 2 -69 0 -95z m-7009 -208 c-12 -24 -23 -43 -26 -41 -4 5 36 86 43 86 3 0
-5 -20 -17 -45z m5641 -322 c-1 -197 -5 -347 -9 -333 -4 14 -9 61 -10 105 -1
44 -5 107 -9 140 -11 89 8 445 24 445 3 0 5 -161 4 -357z m1261 197 c-32 -45
-114 -113 -172 -142 -107 -54 -257 -73 -352 -45 -77 23 -51 33 116 43 141 9
172 14 226 38 56 24 172 102 187 127 4 5 8 9 11 9 3 0 -4 -13 -16 -30z m-1205
-30 c-3 -5 -10 -10 -16 -10 -5 0 -9 5 -9 10 0 6 7 10 16 10 8 0 12 -4 9 -10z
m642 -392 c-3 -8 -6 -5 -6 6 -1 11 2 17 5 13 3 -3 4 -12 1 -19z m-6725 -345
c-48 -111 -88 -200 -90 -198 -7 6 68 193 119 298 29 59 53 106 55 104 2 -2
-36 -93 -84 -204z m2957 115 c-1 -51 -3 -56 -8 -28 -6 34 -3 90 5 90 2 0 3
-28 3 -62z m1346 -706 c-15 -52 -80 -182 -91 -182 -2 0 3 17 11 38 9 20 25 71
35 112 10 41 27 104 37 140 l18 65 3 -58 c2 -33 -4 -83 -13 -115z m-1346 -304
c-1 -162 -3 -193 -11 -153 -9 45 -2 355 8 355 2 0 3 -91 3 -202z m1185 53
c-54 -49 -130 -91 -205 -111 -52 -14 -177 -16 -239 -4 -44 9 -44 9 40 16 236
19 339 49 406 119 15 16 33 29 38 29 6 -1 -12 -22 -40 -49z m-3103 -62 c-62
-27 -116 -48 -118 -45 -15 14 161 95 207 95 15 1 -22 -20 -89 -50z m2596 -471
c-3 -8 -6 -5 -6 6 -1 11 2 17 5 13 3 -3 4 -12 1 -19z m-16 -75 c-15 -59 -66
-156 -95 -180 -21 -18 -21 -18 -5 2 30 36 87 156 94 196 4 22 9 38 12 35 3 -3
0 -27 -6 -53z m-481 -341 c148 -7 153 -8 108 -19 -26 -7 -77 -13 -113 -13 -73
0 -201 26 -211 42 -5 7 4 8 27 3 19 -4 104 -10 189 -13z m210 -67 c0 -8 -4
-15 -9 -15 -13 0 -22 16 -14 24 11 11 23 6 23 -9z"/>
<path d="M8900 9910 c0 -5 5 -10 11 -10 5 0 7 5 4 10 -3 6 -8 10 -11 10 -2 0
-4 -4 -4 -10z"/>
<path d="M6580 9341 c-126 -40 -190 -112 -211 -240 -26 -158 -1 -258 79 -313
57 -39 166 -68 262 -68 70 0 80 3 133 36 87 54 107 100 107 246 0 104 -3 117
-28 162 -32 59 -113 119 -184 137 -40 11 -48 17 -48 36 0 29 -30 30 -110 4z"/>
<path d="M8270 8644 c82 -80 152 -149 157 -152 4 -4 -59 62 -142 146 -82 84
-153 152 -157 152 -4 0 60 -66 142 -146z"/>
<path d="M7805 8391 c-93 -42 -204 -171 -205 -237 -1 -112 34 -175 126 -229
55 -32 143 -43 198 -25 46 15 111 69 159 132 36 49 37 52 37 135 0 81 -1 86
-35 130 -46 60 -89 89 -145 97 -25 4 -56 9 -70 11 -14 3 -43 -3 -65 -14z"/>
<path d="M7580 7389 c-150 -20 -231 -67 -413 -241 -171 -162 -199 -213 -218
-383 -6 -49 -19 -119 -30 -154 -27 -89 -41 -239 -30 -311 5 -32 20 -78 33
-104 47 -94 168 -253 259 -341 51 -49 107 -105 123 -124 l31 -35 -33 20 c-18
10 -59 41 -90 68 l-57 48 61 -60 c186 -181 391 -275 636 -289 514 -29 948 357
985 878 11 158 -37 371 -115 511 -37 66 -144 210 -151 203 -1 -2 8 -19 22 -37
37 -48 102 -182 125 -258 50 -163 55 -379 12 -530 -90 -318 -328 -559 -647
-657 -79 -24 -104 -27 -248 -27 -125 -1 -176 3 -232 18 -40 10 -73 23 -73 28
0 6 8 7 18 3 22 -9 195 -26 335 -32 125 -5 170 5 292 66 191 96 295 174 335
252 11 20 38 56 62 80 58 60 99 147 105 223 3 34 16 96 29 139 20 65 24 99 24
206 0 121 -2 131 -29 187 -16 32 -41 88 -56 124 -14 36 -37 82 -50 102 -14 21
-25 43 -25 49 0 6 -49 60 -108 119 -91 91 -121 114 -188 146 -80 38 -182 66
-309 85 -38 5 -97 14 -130 19 -100 15 -187 18 -255 9z m156 -298 c-3 -5 -26
-12 -51 -15 -25 -4 -82 -26 -128 -48 -197 -98 -327 -308 -327 -528 0 -143 51
-283 136 -376 l45 -49 -26 42 c-48 81 -78 189 -78 288 -1 178 52 307 177 430
85 84 159 128 269 160 68 20 204 22 278 5 65 -15 185 -70 217 -100 29 -27 29
-14 0 19 -13 14 -4 9 19 -13 35 -33 113 -165 113 -193 0 -4 10 -26 22 -48 36
-65 40 -162 12 -251 -13 -41 -25 -96 -25 -122 -2 -56 -8 -69 -65 -139 -24 -29
-51 -67 -59 -84 -19 -35 -101 -91 -219 -148 -92 -45 -153 -52 -266 -31 -35 6
-74 9 -87 6 -12 -4 -34 -1 -49 6 -21 10 -28 10 -31 1 -15 -44 -257 181 -365
340 -62 90 -63 92 -62 157 1 36 11 96 23 135 12 39 24 99 27 135 10 129 19
146 123 248 127 124 180 162 238 172 67 11 145 12 139 1z m447 -113 c18 -18
24 -26 13 -17 -12 9 -32 23 -46 32 -13 10 -19 17 -12 17 7 0 27 -15 45 -32z
m527 -938 c0 -5 -4 -10 -10 -10 -5 0 -10 5 -10 10 0 6 5 10 10 10 6 0 10 -4
10 -10z"/>
<path d="M5535 5860 c-53 -10 -210 -78 -258 -112 -62 -44 -192 -252 -232 -371
-30 -90 -46 -238 -35 -317 21 -148 120 -311 235 -387 22 -15 59 -42 82 -60
223 -176 534 -204 778 -69 99 55 209 169 262 271 63 123 77 181 77 320 0 137
-21 226 -79 330 -35 63 -114 169 -121 162 -3 -2 11 -27 30 -55 43 -64 86 -191
94 -280 9 -84 -2 -200 -25 -275 l-18 -59 -1 209 c0 190 -2 214 -23 273 -27 75
-74 145 -156 230 -80 85 -106 102 -216 149 -90 38 -102 41 -220 45 -68 3 -147
1 -174 -4z m278 -316 c34 -14 73 -37 87 -50 21 -21 15 -19 -33 9 -96 58 -196
67 -301 27 -32 -12 -34 2 -3 23 15 11 46 16 105 16 67 1 94 -4 145 -25z m-267
-83 c-15 -69 -25 -73 -13 -6 6 30 13 55 17 55 4 0 2 -22 -4 -49z m359 -15 c26
-14 54 -26 61 -26 8 0 25 -22 38 -48 21 -42 24 -63 27 -182 3 -160 2 -164 -98
-262 l-68 -67 -95 -1 c-101 -2 -231 11 -292 30 -51 15 -131 105 -158 177 -23
61 -21 129 6 206 7 20 11 37 9 37 -11 0 77 125 98 138 l22 15 -22 -24 c-12
-13 -34 -51 -50 -84 -24 -51 -28 -72 -27 -140 0 -84 26 -166 63 -199 16 -14
17 -8 16 102 0 115 1 118 35 181 46 86 131 149 235 175 51 13 153 -1 200 -28z
m300 -678 c-15 -18 -46 -48 -69 -67 -26 -22 -17 -10 24 32 70 72 88 86 45 35z
m-695 -190 c41 -5 138 -13 215 -17 125 -6 135 -7 90 -15 -102 -19 -233 -11
-327 18 -49 14 -88 29 -88 32 0 4 8 3 18 -1 9 -3 51 -11 92 -17z"/>
<path d="M4430 5724 c-8 -2 -41 -6 -72 -9 -53 -6 -62 -11 -118 -66 -86 -84
-114 -148 -108 -243 4 -61 10 -80 37 -120 88 -127 330 -196 473 -134 68 29
121 108 139 208 11 66 11 72 -15 143 -34 93 -101 175 -161 198 -40 15 -143 29
-175 23z"/>
<path d="M5062 4269 c-42 -12 -129 -64 -165 -97 -41 -39 -77 -114 -77 -162 0
-30 9 -54 31 -87 27 -38 30 -51 25 -84 l-6 -39 70 -45 c64 -41 76 -45 132 -45
57 0 66 3 117 43 31 24 68 50 83 60 101 64 150 212 110 337 -16 50 -22 57 -82
92 -59 34 -72 38 -135 37 -38 0 -85 -5 -103 -10z"/>
<path d="M2099 2957 c-66 -28 -107 -63 -134 -117 -36 -72 -34 -130 9 -200 32
-50 33 -56 20 -81 -12 -24 -12 -28 4 -35 9 -4 42 -9 72 -11 30 -2 91 -6 135
-9 l80 -5 43 37 c24 20 55 55 69 77 33 52 65 145 52 152 -5 4 -9 16 -9 29 0
13 -9 31 -20 41 -12 11 -31 36 -43 57 -32 58 -71 77 -159 81 -56 2 -87 -2
-119 -16z"/>
</g>
</svg>
